<?xml version="1.0" encoding="UTF-8"?>
<svg width="176px" height="45px" viewBox="0 0 176 45" version="1.1" xmlns="http://www.w3.org/2000/svg" xmlns:xlink="http://www.w3.org/1999/xlink">
    <!-- Generator: Sketch 44.1 (41455) - http://www.bohemiancoding.com/sketch -->
    <title>Untitled 2</title>
    <desc>Created with Sketch.</desc>
    <defs></defs>
    <g id="Page-1" stroke="none" stroke-width="1" fill="none" fill-rule="evenodd">
        <g id="Group">
            <rect id="Rectangle" fill="#25ADDE" x="0" y="0" width="45" height="45" rx="16"></rect>
            <path d="M6.23938784,19.3694617 L20.2610628,6.99371912 C21.4804049,5.83542696 23.4312418,5.83542696 24.6505149,6.99371912 L38.672328,19.4304426 C39.1600372,19.857171 38.8552017,20.7106966 38.1846187,20.7106966 L35.2583634,20.7106966 L22.4558579,9.34995722 L9.65335246,20.7106966 L6.72709707,20.7106966 C6.05651415,20.7106966 5.75167861,19.857171 6.23938784,19.3694617 Z M22.5,38.636888 C18.3559416,36.6705709 13.375,30.9145983 13.375,25.875 C13.375,20.8354017 17.4604017,16.75 22.5,16.75 C27.5395983,16.75 31.625,20.8354017 31.625,25.875 C31.625,30.9145983 26.6628809,36.6705709 22.5,38.636888 Z M22.5625,28.75 C24.3919432,28.75 25.875,27.2669432 25.875,25.4375 C25.875,23.6080568 24.3919432,22.125 22.5625,22.125 C20.7330568,22.125 19.25,23.6080568 19.25,25.4375 C19.25,27.2669432 20.7330568,28.75 22.5625,28.75 Z" id="Combined-Shape" fill="#FFFFFF" fill-rule="nonzero"></path>
        </g>
        <path d="M62.185,1.22 L65.545,1.22 L65.545,11.51 L78.39,11.51 L78.39,1.22 L81.75,1.22 L81.75,26 L78.39,26 L78.39,14.66 L65.545,14.66 L65.545,26 L62.185,26 L62.185,1.22 Z M89.87,17.705 C89.87,18.5450042 89.998332,19.3208298 90.255,20.0325 C90.511668,20.7441702 90.873331,21.3508308 91.34,21.8525 C91.806669,22.3541692 92.3783299,22.7508319 93.055,23.0425 C93.73167,23.3341681 94.4899958,23.48 95.33,23.48 C96.1700042,23.48 96.92833,23.3341681 97.605,23.0425 C98.2816701,22.7508319 98.853331,22.3541692 99.32,21.8525 C99.786669,21.3508308 100.148332,20.7441702 100.405,20.0325 C100.661668,19.3208298 100.79,18.5450042 100.79,17.705 C100.79,16.8649958 100.661668,16.0891702 100.405,15.3775 C100.148332,14.6658298 99.786669,14.0591692 99.32,13.5575 C98.853331,13.0558308 98.2816701,12.6591681 97.605,12.3675 C96.92833,12.0758319 96.1700042,11.93 95.33,11.93 C94.4899958,11.93 93.73167,12.0758319 93.055,12.3675 C92.3783299,12.6591681 91.806669,13.0558308 91.34,13.5575 C90.873331,14.0591692 90.511668,14.6658298 90.255,15.3775 C89.998332,16.0891702 89.87,16.8649958 89.87,17.705 Z M86.51,17.705 C86.51,16.4916606 86.7374977,15.3600052 87.1925,14.31 C87.6475023,13.2599947 88.2716627,12.3383373 89.065,11.545 C89.8583373,10.7516627 90.7916613,10.1275023 91.865,9.6725 C92.9383387,9.21749773 94.0933272,8.99 95.33,8.99 C96.5666729,8.99 97.7216613,9.21749773 98.795,9.6725 C99.8683387,10.1275023 100.801663,10.7516627 101.595,11.545 C102.388337,12.3383373 103.012498,13.2599947 103.4675,14.31 C103.922502,15.3600052 104.15,16.4916606 104.15,17.705 C104.15,18.9183394 103.922502,20.055828 103.4675,21.1175 C103.012498,22.179172 102.388337,23.1008294 101.595,23.8825 C100.801663,24.6641706 99.8683387,25.2824977 98.795,25.7375 C97.7216613,26.1925023 96.5666729,26.42 95.33,26.42 C94.0933272,26.42 92.9383387,26.1925023 91.865,25.7375 C90.7916613,25.2824977 89.8583373,24.6641706 89.065,23.8825 C88.2716627,23.1008294 87.6475023,22.179172 87.1925,21.1175 C86.7374977,20.055828 86.51,18.9183394 86.51,17.705 Z M122.805,26 L119.655,26 L119.655,23.445 L119.585,23.445 C119.188331,24.3316711 118.500005,25.0491639 117.52,25.5975 C116.539995,26.1458361 115.40834,26.42 114.125,26.42 C113.308329,26.42 112.538337,26.2975012 111.815,26.0525 C111.091663,25.8074988 110.455836,25.4283359 109.9075,24.915 C109.359164,24.4016641 108.921668,23.742504 108.595,22.9375 C108.268332,22.132496 108.105,21.1816721 108.105,20.085 L108.105,9.41 L111.255,9.41 L111.255,19.21 C111.255,19.9800038 111.359999,20.6391639 111.57,21.1875 C111.780001,21.7358361 112.059998,22.179165 112.41,22.5175 C112.760002,22.855835 113.162498,23.1008326 113.6175,23.2525 C114.072502,23.4041674 114.544998,23.48 115.035,23.48 C115.688337,23.48 116.294997,23.375001 116.855,23.165 C117.415003,22.9549989 117.904998,22.6225023 118.325,22.1675 C118.745002,21.7124977 119.071665,21.1350035 119.305,20.435 C119.538334,19.7349965 119.655,18.9066714 119.655,17.95 L119.655,9.41 L122.805,9.41 L122.805,26 Z M126.41,23.165 L135.825,12.14 L126.725,12.14 L126.725,9.41 L139.675,9.41 L139.675,12.21 L130.19,23.27 L140.165,23.27 L140.165,26 L126.41,26 L126.41,23.165 Z M146.15,18.86 C146.15,19.5833369 146.307498,20.242497 146.6225,20.8375 C146.937502,21.432503 147.351664,21.9399979 147.865,22.36 C148.378336,22.7800021 148.97333,23.1066655 149.65,23.34 C150.32667,23.5733345 151.026663,23.69 151.75,23.69 C152.730005,23.69 153.581663,23.4625023 154.305,23.0075 C155.028337,22.5524977 155.69333,21.9516704 156.3,21.205 L158.68,23.025 C156.929991,25.2883447 154.480016,26.42 151.33,26.42 C150.023327,26.42 148.839172,26.1983355 147.7775,25.755 C146.715828,25.3116645 145.817504,24.6991706 145.0825,23.9175 C144.347496,23.1358294 143.781669,22.214172 143.385,21.1525 C142.988331,20.090828 142.79,18.9416728 142.79,17.705 C142.79,16.4683272 143.005831,15.319172 143.4375,14.2575 C143.869169,13.195828 144.464163,12.2741706 145.2225,11.4925 C145.980837,10.7108294 146.884995,10.0983356 147.935,9.655 C148.985005,9.21166445 150.128327,8.99 151.365,8.99 C152.835007,8.99 154.077495,9.2466641 155.0925,9.76 C156.107505,10.2733359 156.941663,10.9441625 157.595,11.7725 C158.248337,12.6008375 158.720832,13.5341615 159.0125,14.5725 C159.304168,15.6108385 159.45,16.6666613 159.45,17.74 L159.45,18.86 L146.15,18.86 Z M156.09,16.34 C156.066667,15.6399965 155.955834,14.9983363 155.7575,14.415 C155.559166,13.8316637 155.261669,13.3241688 154.865,12.8925 C154.468331,12.4608312 153.972503,12.1225012 153.3775,11.8775 C152.782497,11.6324988 152.088337,11.51 151.295,11.51 C150.524996,11.51 149.81917,11.6558319 149.1775,11.9475 C148.53583,12.2391681 147.993336,12.618331 147.55,13.085 C147.106664,13.551669 146.762501,14.0708305 146.5175,14.6425 C146.272499,15.2141695 146.15,15.7799972 146.15,16.34 L156.09,16.34 Z M162.075,23.165 L171.49,12.14 L162.39,12.14 L162.39,9.41 L175.34,9.41 L175.34,12.21 L165.855,23.27 L175.83,23.27 L175.83,26 L162.075,26 L162.075,23.165 Z" id="Houzez" fill="#000000"></path>
        <text id="mobile" font-family="Avenir-MediumOblique, Avenir" font-size="20" font-style="italic" font-weight="400" fill="#EB427E">
            <tspan x="114" y="38">mobile</tspan>
        </text>
    </g>
</svg>